<mxfile host="app.diagrams.net" modified="2025-01-13T23:51:28.004Z" agent="Mozilla/5.0 (Windows NT 10.0; Win64; x64) AppleWebKit/537.36 (KHTML, like Gecko) Chrome/131.0.0.0 Safari/537.36" etag="cpKsUCplkRm-yM6NC9Sc" version="23.1.6" type="device">
  <diagram name="Página-1" id="5gc6UgbiQN4bwvO4wGnL">
    <mxGraphModel dx="1050" dy="557" grid="1" gridSize="10" guides="1" tooltips="1" connect="1" arrows="1" fold="1" page="1" pageScale="1" pageWidth="413" pageHeight="583" math="0" shadow="0">
      <root>
        <mxCell id="0" />
        <mxCell id="1" parent="0" />
        <mxCell id="eqR_7KaGiTr2mihYH16X-13" value="&lt;strong&gt;Arduino&lt;/strong&gt; coleta dados e envia para o &lt;strong&gt;Backend API&lt;/strong&gt;." style="text;whiteSpace=wrap;html=1;" vertex="1" parent="1">
          <mxGeometry x="300" y="340" width="80" height="40" as="geometry" />
        </mxCell>
        <mxCell id="eqR_7KaGiTr2mihYH16X-14" value="&lt;strong&gt;Backend API&lt;/strong&gt; processa e armazena os dados no &lt;strong&gt;Banco de Dados (MySQL)&lt;/strong&gt;." style="text;whiteSpace=wrap;html=1;" vertex="1" parent="1">
          <mxGeometry x="530" y="440" width="110" height="40" as="geometry" />
        </mxCell>
        <mxCell id="eqR_7KaGiTr2mihYH16X-15" value="&lt;strong&gt;Dashboard&lt;/strong&gt; consulta o &lt;strong&gt;Backend API&lt;/strong&gt; para exibir os dados ao usuário." style="text;whiteSpace=wrap;html=1;" vertex="1" parent="1">
          <mxGeometry x="530" y="240" width="90" height="40" as="geometry" />
        </mxCell>
        <mxCell id="eqR_7KaGiTr2mihYH16X-16" value="Banco de Dados (MySQL)" style="shape=module;align=left;spacingLeft=20;align=center;verticalAlign=top;whiteSpace=wrap;html=1;fillColor=#eeeeee;strokeColor=#36393d;" vertex="1" parent="1">
          <mxGeometry x="630" y="400" width="100" height="50" as="geometry" />
        </mxCell>
        <mxCell id="eqR_7KaGiTr2mihYH16X-24" style="edgeStyle=orthogonalEdgeStyle;rounded=0;orthogonalLoop=1;jettySize=auto;html=1;exitX=0.75;exitY=1;exitDx=0;exitDy=0;entryX=0.75;entryY=0;entryDx=0;entryDy=0;" edge="1" parent="1" source="eqR_7KaGiTr2mihYH16X-17" target="eqR_7KaGiTr2mihYH16X-19">
          <mxGeometry relative="1" as="geometry" />
        </mxCell>
        <mxCell id="eqR_7KaGiTr2mihYH16X-17" value="Interface Web (Dashboard)" style="shape=module;align=left;spacingLeft=20;align=center;verticalAlign=top;whiteSpace=wrap;html=1;fillColor=#eeeeee;strokeColor=#36393d;" vertex="1" parent="1">
          <mxGeometry x="420" y="250" width="100" height="50" as="geometry" />
        </mxCell>
        <mxCell id="eqR_7KaGiTr2mihYH16X-18" value="Arduino (Data Collector)" style="shape=module;align=left;spacingLeft=20;align=center;verticalAlign=top;whiteSpace=wrap;html=1;fillColor=#eeeeee;strokeColor=#36393d;" vertex="1" parent="1">
          <mxGeometry x="190" y="400" width="100" height="50" as="geometry" />
        </mxCell>
        <mxCell id="eqR_7KaGiTr2mihYH16X-23" style="edgeStyle=orthogonalEdgeStyle;rounded=0;orthogonalLoop=1;jettySize=auto;html=1;exitX=0.25;exitY=0;exitDx=0;exitDy=0;entryX=0.25;entryY=1;entryDx=0;entryDy=0;" edge="1" parent="1" source="eqR_7KaGiTr2mihYH16X-19" target="eqR_7KaGiTr2mihYH16X-17">
          <mxGeometry relative="1" as="geometry" />
        </mxCell>
        <mxCell id="eqR_7KaGiTr2mihYH16X-19" value="Web Server (Backend API)" style="shape=module;align=left;spacingLeft=20;align=center;verticalAlign=top;whiteSpace=wrap;html=1;fillColor=#eeeeee;strokeColor=#36393d;" vertex="1" parent="1">
          <mxGeometry x="420" y="400" width="100" height="50" as="geometry" />
        </mxCell>
        <mxCell id="eqR_7KaGiTr2mihYH16X-21" style="edgeStyle=orthogonalEdgeStyle;rounded=0;orthogonalLoop=1;jettySize=auto;html=1;exitX=1;exitY=0.5;exitDx=0;exitDy=0;entryX=0;entryY=0.492;entryDx=0;entryDy=0;entryPerimeter=0;" edge="1" parent="1" source="eqR_7KaGiTr2mihYH16X-18" target="eqR_7KaGiTr2mihYH16X-19">
          <mxGeometry relative="1" as="geometry" />
        </mxCell>
        <mxCell id="eqR_7KaGiTr2mihYH16X-22" style="edgeStyle=orthogonalEdgeStyle;rounded=0;orthogonalLoop=1;jettySize=auto;html=1;exitX=1;exitY=0.5;exitDx=0;exitDy=0;entryX=0.056;entryY=0.516;entryDx=0;entryDy=0;entryPerimeter=0;" edge="1" parent="1" source="eqR_7KaGiTr2mihYH16X-19" target="eqR_7KaGiTr2mihYH16X-16">
          <mxGeometry relative="1" as="geometry" />
        </mxCell>
        <mxCell id="eqR_7KaGiTr2mihYH16X-29" value="O &lt;strong&gt;sensor de corrente&lt;/strong&gt; mede o consumo de energia." style="text;whiteSpace=wrap;html=1;" vertex="1" parent="1">
          <mxGeometry x="140" y="330" width="100" height="40" as="geometry" />
        </mxCell>
        <mxCell id="eqR_7KaGiTr2mihYH16X-37" style="edgeStyle=orthogonalEdgeStyle;rounded=0;orthogonalLoop=1;jettySize=auto;html=1;exitX=0.5;exitY=1;exitDx=0;exitDy=0;entryX=0.5;entryY=0;entryDx=0;entryDy=0;" edge="1" parent="1" source="eqR_7KaGiTr2mihYH16X-36" target="eqR_7KaGiTr2mihYH16X-18">
          <mxGeometry relative="1" as="geometry" />
        </mxCell>
        <mxCell id="eqR_7KaGiTr2mihYH16X-36" value="Sensor de corrente" style="shape=module;align=left;spacingLeft=20;align=center;verticalAlign=top;whiteSpace=wrap;html=1;fillColor=#eeeeee;strokeColor=#36393d;" vertex="1" parent="1">
          <mxGeometry x="190" y="270" width="100" height="50" as="geometry" />
        </mxCell>
        <mxCell id="eqR_7KaGiTr2mihYH16X-41" value="Sensores" style="shape=umlFrame;whiteSpace=wrap;html=1;pointerEvents=0;width=60;height=30;fillColor=#e1d5e7;strokeColor=#9673a6;" vertex="1" parent="1">
          <mxGeometry x="110" y="250" width="280" height="220" as="geometry" />
        </mxCell>
        <mxCell id="eqR_7KaGiTr2mihYH16X-42" value="Gestão de energia" style="shape=umlFrame;whiteSpace=wrap;html=1;pointerEvents=0;width=130;height=30;fillColor=#e1d5e7;strokeColor=#9673a6;" vertex="1" parent="1">
          <mxGeometry x="410" y="200" width="330" height="330" as="geometry" />
        </mxCell>
        <mxCell id="eqR_7KaGiTr2mihYH16X-43" value="&lt;h1&gt;Diagrama de componentes do sistema SiGEE&lt;/h1&gt;&lt;p&gt;&lt;/p&gt;&lt;p style=&quot;line-height: 30%;&quot;&gt;Disciplina: Sistemas Distribuídos&lt;/p&gt;&lt;p style=&quot;line-height: 30%;&quot;&gt;Aluna: Antônia Vitória Brasil Andrade&lt;/p&gt;&lt;p&gt;&lt;/p&gt;" style="text;html=1;spacing=5;spacingTop=-20;whiteSpace=wrap;overflow=hidden;rounded=0;" vertex="1" parent="1">
          <mxGeometry x="40" y="40" width="340" height="120" as="geometry" />
        </mxCell>
      </root>
    </mxGraphModel>
  </diagram>
</mxfile>
